<svg version="1.1" id="Layer_1" xmlns="http://www.w3.org/2000/svg" x="0" y="0" width="20" height="20" viewBox="-157 57 20 20" xml:space="preserve"><style>.st0{fill:#222}</style><path class="st0" d="M-148.4 73.9c-4.6 0-8.3-3.7-8.3-8.3 0-4.6 3.7-8.3 8.3-8.3 4.6 0 8.3 3.7 8.3 8.3 0 4.5-3.7 8.3-8.3 8.3zm0-14.9c-3.6 0-6.6 2.9-6.6 6.6 0 3.6 2.9 6.6 6.6 6.6s6.6-2.9 6.6-6.6c0-3.7-3-6.6-6.6-6.6z"/><path class="st0" d="M-138.1 76.8c-.2 0-.5-.1-.6-.3l-4.9-4.9c-.3-.3-.3-.9 0-1.2.3-.3.9-.3 1.2 0l4.9 4.9c.3.3.3.9 0 1.2-.2.2-.4.3-.6.3z"/></svg>